<svg width="49" height="49" viewBox="0 0 49 49" fill="none" xmlns="http://www.w3.org/2000/svg">
<path d="M0 17.1039C0 7.65768 7.65766 0 17.1039 0H31.7508C41.197 0 48.8547 7.65766 48.8547 17.1039V31.7508C48.8547 41.197 41.197 48.8547 31.7508 48.8547H17.1039C7.65768 48.8547 0 41.197 0 31.7508V17.1039Z" fill="#DCFCE7"/>
<path d="M32.5642 25.4453C32.5642 30.5344 29.0019 33.0789 24.7678 34.5547C24.5461 34.6298 24.3052 34.6262 24.0859 34.5445C19.8416 33.0789 16.2793 30.5344 16.2793 25.4453V18.3207C16.2793 18.0508 16.3865 17.7919 16.5774 17.601C16.7683 17.4101 17.0272 17.3029 17.2971 17.3029C19.3327 17.3029 21.8772 16.0815 23.6482 14.5345C23.8638 14.3502 24.1381 14.249 24.4217 14.249C24.7053 14.249 24.9796 14.3502 25.1953 14.5345C26.9764 16.0917 29.5108 17.3029 31.5464 17.3029C31.8163 17.3029 32.0752 17.4101 32.2661 17.601C32.457 17.7919 32.5642 18.0508 32.5642 18.3207V25.4453Z" stroke="#00A63E" stroke-width="2.03561" stroke-linecap="round" stroke-linejoin="round"/>
</svg>
