<svg width="49" height="49" viewBox="0 0 49 49" fill="none" xmlns="http://www.w3.org/2000/svg">
<path d="M0 17.1039C0 7.65768 7.65766 0 17.1039 0H31.7508C41.197 0 48.8547 7.65766 48.8547 17.1039V31.7508C48.8547 41.197 41.197 48.8547 31.7508 48.8547H17.1039C7.65768 48.8547 0 41.197 0 31.7508V17.1039Z" fill="#F3E8FF"/>
<path d="M24.4212 34.6051C30.0424 34.6051 34.5993 30.0483 34.5993 24.4271C34.5993 18.8059 30.0424 14.249 24.4212 14.249C18.8 14.249 14.2432 18.8059 14.2432 24.4271C14.2432 30.0483 18.8 34.6051 24.4212 34.6051Z" stroke="#9810FA" stroke-width="2.03561" stroke-linecap="round" stroke-linejoin="round"/>
<path d="M24.4209 28.497V24.4258" stroke="#9810FA" stroke-width="2.03561" stroke-linecap="round" stroke-linejoin="round"/>
<path d="M24.4209 20.3545H24.4333" stroke="#9810FA" stroke-width="2.03561" stroke-linecap="round" stroke-linejoin="round"/>
</svg>
