<svg width="49" height="49" viewBox="0 0 49 49" fill="none" xmlns="http://www.w3.org/2000/svg">
<path d="M0 17.1039C0 7.65768 7.65766 0 17.1039 0H31.7508C41.197 0 48.8547 7.65766 48.8547 17.1039V31.7508C48.8547 41.197 41.197 48.8547 31.7508 48.8547H17.1039C7.65768 48.8547 0 41.197 0 31.7508V17.1039Z" fill="#DBEAFE"/>
<path d="M22.6582 33.5879C22.8369 33.8973 23.0938 34.1543 23.4033 34.3329C23.7127 34.5116 24.0637 34.6056 24.421 34.6056C24.7783 34.6056 25.1294 34.5116 25.4388 34.3329C25.7482 34.1543 26.0052 33.8973 26.1839 33.5879" stroke="#155DFC" stroke-width="2.03561" stroke-linecap="round" stroke-linejoin="round"/>
<path d="M15.5267 27.8113C15.3937 27.9571 15.306 28.1383 15.2741 28.333C15.2422 28.5277 15.2677 28.7274 15.3472 28.9079C15.4268 29.0884 15.5571 29.2419 15.7223 29.3497C15.8876 29.4575 16.0805 29.515 16.2778 29.5151H32.5627C32.7599 29.5152 32.953 29.458 33.1183 29.3504C33.2836 29.2428 33.4141 29.0894 33.4939 28.909C33.5737 28.7287 33.5993 28.529 33.5677 28.3343C33.5361 28.1396 33.4486 27.9582 33.3159 27.8123C31.9622 26.4169 30.5271 24.934 30.5271 20.3549C30.5271 18.7352 29.8837 17.182 28.7384 16.0367C27.5932 14.8914 26.0399 14.248 24.4202 14.248C22.8006 14.248 21.2473 14.8914 20.1021 16.0367C18.9568 17.182 18.3134 18.7352 18.3134 20.3549C18.3134 24.934 16.8773 26.4169 15.5267 27.8113Z" stroke="#155DFC" stroke-width="2.03561" stroke-linecap="round" stroke-linejoin="round"/>
</svg>
