<svg width="49" height="49" viewBox="0 0 49 49" fill="none" xmlns="http://www.w3.org/2000/svg">
<path d="M0 17.1039C0 7.65768 7.65766 0 17.1039 0H31.7508C41.197 0 48.8547 7.65766 48.8547 17.1039V31.7508C48.8547 41.197 41.197 48.8547 31.7508 48.8547H17.1039C7.65768 48.8547 0 41.197 0 31.7508V17.1039Z" fill="#FEF9C2"/>
<path d="M31.5452 33.5871L24.4205 29.5159L17.2959 33.5871V17.3022C17.2959 16.7623 17.5104 16.2446 17.8921 15.8628C18.2739 15.4811 18.7916 15.2666 19.3315 15.2666H29.5096C30.0494 15.2666 30.5672 15.4811 30.949 15.8628C31.3307 16.2446 31.5452 16.7623 31.5452 17.3022V33.5871Z" stroke="#D08700" stroke-width="2.03561" stroke-linecap="round" stroke-linejoin="round"/>
</svg>
